<?xml version="1.0" encoding="UTF-8"?>
<svg id="Layer_2" xmlns="http://www.w3.org/2000/svg" viewBox="0 0 802.76 802.76">
  <defs>
    <style>
      .cls-1 {
        fill: #fff;
      }

      .cls-1, .cls-2 {
        fill-rule: evenodd;
      }
    </style>
  </defs>
  <g id="Layer_1-2" data-name="Layer_1">
    <path class="cls-2" d="M401.38,0c221.67,0,401.38,179.7,401.38,401.38s-179.71,401.38-401.38,401.38S0,623.05,0,401.38,179.7,0,401.38,0"/>
    <path class="cls-1" d="M174.17,324.81h94.09v310.49h-94.09v-310.49ZM221.98,167.24c30.33,0,54.92,24.59,54.92,54.93s-24.59,54.93-54.92,54.93-54.93-24.59-54.93-54.93,24.59-54.93,54.93-54.93ZM412.9,367.03c60.83-80.13,222.81-72.05,222.81,79.76v188.72h-94.97l.25-166.26c0-100.28-119.33-80.04-123.47-4.07v170.12h-94.09v-310.49h89.47v42.22"/>
  </g>
</svg>