<?xml version="1.0" encoding="UTF-8"?>
<svg xmlns="http://www.w3.org/2000/svg" xmlns:xlink="http://www.w3.org/1999/xlink" width="5887" height="2576" viewBox="0 0 5887 2576">
<path fill-rule="evenodd" fill="rgb(99.609375%, 99.609375%, 99.609375%)" fill-opacity="1" d="M 0 0.808594 L 5886.71875 0.808594 L 5886.71875 2575.175781 L 0 2575.175781 L 0 0.808594 "/>
<path fill-rule="evenodd" fill="rgb(3.921509%, 39.988708%, 76.171875%)" fill-opacity="1" d="M 358.878906 295.609375 L 1033.480469 295.609375 C 1068.730469 295.609375 1097.558594 324.441406 1097.558594 359.679688 L 1097.558594 1034.289062 C 1097.558594 1069.53125 1068.730469 1098.359375 1033.480469 1098.359375 L 358.878906 1098.359375 C 323.636719 1098.359375 294.804688 1069.53125 294.804688 1034.289062 L 294.804688 359.679688 C 294.804688 324.441406 323.636719 295.609375 358.878906 295.609375 "/>
<path fill-rule="evenodd" fill="rgb(99.609375%, 99.609375%, 99.609375%)" fill-opacity="1" d="M 411.507812 602.558594 L 527.53125 602.558594 L 527.53125 985.441406 L 411.507812 985.441406 Z M 470.457031 408.269531 C 507.863281 408.269531 538.1875 438.589844 538.1875 476 C 538.1875 513.410156 507.863281 543.730469 470.457031 543.730469 C 433.046875 543.730469 402.722656 513.410156 402.722656 476 C 402.722656 438.589844 433.046875 408.269531 470.457031 408.269531 Z M 705.894531 654.640625 C 780.902344 555.820312 980.648438 565.789062 980.648438 752.988281 C 980.648438 983.449219 980.648438 985.710938 980.648438 985.710938 L 863.539062 985.710938 L 863.84375 780.679688 C 863.84375 657.019531 716.691406 681.980469 711.585938 775.660156 L 711.585938 985.441406 L 595.5625 985.441406 L 595.5625 602.558594 L 705.894531 602.558594 L 705.894531 654.640625 "/>
<path fill-rule="evenodd" fill="rgb(3.921509%, 39.988708%, 76.171875%)" fill-opacity="1" d="M 1878.191406 295.609375 C 2099.859375 295.609375 2279.570312 475.308594 2279.570312 696.988281 C 2279.570312 918.660156 2099.859375 1098.371094 1878.191406 1098.371094 C 1656.511719 1098.371094 1476.808594 918.660156 1476.808594 696.988281 C 1476.808594 475.308594 1656.511719 295.609375 1878.191406 295.609375 "/>
<path fill-rule="evenodd" fill="rgb(100%, 100%, 100%)" fill-opacity="1" d="M 1650.980469 620.421875 L 1745.070312 620.421875 L 1745.070312 930.910156 L 1650.980469 930.910156 Z M 1698.78125 462.851562 C 1729.121094 462.851562 1753.710938 487.441406 1753.710938 517.78125 C 1753.710938 548.121094 1729.121094 572.710938 1698.78125 572.710938 C 1668.449219 572.710938 1643.859375 548.121094 1643.859375 517.78125 C 1643.859375 487.441406 1668.449219 462.851562 1698.78125 462.851562 Z M 1889.710938 662.640625 C 1950.53125 582.511719 2112.519531 590.589844 2112.519531 742.398438 C 2112.519531 929.289062 2112.519531 931.121094 2112.519531 931.121094 L 2017.550781 931.121094 L 2017.800781 764.859375 C 2017.800781 664.578125 1898.46875 684.820312 1894.320312 760.789062 L 1894.320312 930.910156 L 1800.238281 930.910156 L 1800.238281 620.421875 L 1889.710938 620.421875 L 1889.710938 662.640625 "/>
<path fill-rule="evenodd" fill="rgb(0%, 0%, 0%)" fill-opacity="1" d="M 2722.820312 295.609375 L 3397.429688 295.609375 C 3432.671875 295.609375 3461.511719 324.441406 3461.511719 359.679688 L 3461.511719 1034.289062 C 3461.511719 1069.53125 3432.671875 1098.359375 3397.429688 1098.359375 L 2722.820312 1098.359375 C 2687.578125 1098.359375 2658.75 1069.53125 2658.75 1034.289062 L 2658.75 359.679688 C 2658.75 324.441406 2687.578125 295.609375 2722.820312 295.609375 "/>
<path fill-rule="evenodd" fill="rgb(99.609375%, 99.609375%, 99.609375%)" fill-opacity="1" d="M 2775.449219 602.558594 L 2891.480469 602.558594 L 2891.480469 985.441406 L 2775.449219 985.441406 Z M 2834.398438 408.269531 C 2871.808594 408.269531 2902.140625 438.589844 2902.140625 476 C 2902.140625 513.410156 2871.808594 543.730469 2834.398438 543.730469 C 2797 543.730469 2766.671875 513.410156 2766.671875 476 C 2766.671875 438.589844 2797 408.269531 2834.398438 408.269531 Z M 3069.839844 654.640625 C 3144.851562 555.820312 3344.601562 565.789062 3344.601562 752.988281 C 3344.601562 983.449219 3344.601562 985.710938 3344.601562 985.710938 L 3227.488281 985.710938 L 3227.789062 780.679688 C 3227.789062 657.019531 3080.640625 681.980469 3075.53125 775.660156 L 3075.53125 985.441406 L 2959.511719 985.441406 L 2959.511719 602.558594 L 3069.839844 602.558594 L 3069.839844 654.640625 "/>
<path fill-rule="evenodd" fill="rgb(0%, 0%, 0%)" fill-opacity="1" d="M 4242.140625 295.609375 C 4463.808594 295.609375 4643.519531 475.308594 4643.519531 696.988281 C 4643.519531 918.660156 4463.808594 1098.371094 4242.140625 1098.371094 C 4020.460938 1098.371094 3840.761719 918.660156 3840.761719 696.988281 C 3840.761719 475.308594 4020.460938 295.609375 4242.140625 295.609375 "/>
<path fill-rule="evenodd" fill="rgb(100%, 100%, 100%)" fill-opacity="1" d="M 4014.929688 620.421875 L 4109.019531 620.421875 L 4109.019531 930.910156 L 4014.929688 930.910156 Z M 4062.738281 462.851562 C 4093.070312 462.851562 4117.660156 487.441406 4117.660156 517.78125 C 4117.660156 548.121094 4093.070312 572.710938 4062.738281 572.710938 C 4032.398438 572.710938 4007.808594 548.121094 4007.808594 517.78125 C 4007.808594 487.441406 4032.398438 462.851562 4062.738281 462.851562 Z M 4253.660156 662.640625 C 4314.488281 582.511719 4476.46875 590.589844 4476.46875 742.398438 C 4476.46875 929.289062 4476.46875 931.121094 4476.46875 931.121094 L 4381.5 931.121094 L 4381.75 764.859375 C 4381.75 664.578125 4262.421875 684.820312 4258.28125 760.789062 L 4258.28125 930.910156 L 4164.191406 930.910156 L 4164.191406 620.421875 L 4253.660156 620.421875 L 4253.660156 662.640625 "/>
<path fill-rule="evenodd" fill="rgb(3.921509%, 39.988708%, 76.171875%)" fill-opacity="1" d="M 5022.769531 602.558594 L 5138.800781 602.558594 L 5138.800781 985.441406 L 5022.769531 985.441406 Z M 5081.71875 408.269531 C 5119.128906 408.269531 5149.460938 438.589844 5149.460938 476 C 5149.460938 513.410156 5119.128906 543.730469 5081.71875 543.730469 C 5044.320312 543.730469 5013.988281 513.410156 5013.988281 476 C 5013.988281 438.589844 5044.320312 408.269531 5081.71875 408.269531 Z M 5317.160156 654.640625 C 5392.171875 555.820312 5591.921875 565.789062 5591.921875 752.988281 C 5591.921875 983.449219 5591.921875 985.710938 5591.921875 985.710938 L 5474.800781 985.710938 L 5475.109375 780.679688 C 5475.109375 657.019531 5327.960938 681.980469 5322.851562 775.660156 L 5322.851562 985.441406 L 5206.828125 985.441406 L 5206.828125 602.558594 L 5317.160156 602.558594 L 5317.160156 654.640625 "/>
<path fill-rule="nonzero" fill="rgb(3.921509%, 39.988708%, 76.171875%)" fill-opacity="1" d="M 360.167969 1467.578125 L 1034.78125 1467.578125 C 1055.171875 1467.578125 1073.699219 1475.910156 1087.128906 1489.339844 C 1100.550781 1502.769531 1108.890625 1521.300781 1108.890625 1541.691406 L 1108.890625 2216.300781 C 1108.890625 2236.691406 1100.550781 2255.222656 1087.128906 2268.648438 C 1073.699219 2282.078125 1055.171875 2290.410156 1034.78125 2290.410156 L 360.167969 2290.410156 C 339.777344 2290.410156 321.246094 2282.078125 307.816406 2268.648438 C 294.390625 2255.222656 286.054688 2236.691406 286.054688 2216.300781 L 286.054688 1541.691406 C 286.054688 1521.300781 294.390625 1502.769531 307.816406 1489.339844 C 321.246094 1475.910156 339.777344 1467.578125 360.167969 1467.578125 Z M 1034.78125 1487.660156 L 360.167969 1487.660156 C 345.320312 1487.660156 331.8125 1493.738281 322.015625 1503.539062 C 312.214844 1513.339844 306.132812 1526.839844 306.132812 1541.691406 L 306.132812 2216.300781 C 306.132812 2231.148438 312.214844 2244.65625 322.015625 2254.453125 C 331.8125 2264.253906 345.320312 2270.335938 360.167969 2270.335938 L 1034.78125 2270.335938 C 1049.628906 2270.335938 1063.128906 2264.253906 1072.929688 2254.453125 C 1082.730469 2244.65625 1088.808594 2231.148438 1088.808594 2216.300781 L 1088.808594 1541.691406 C 1088.808594 1526.839844 1082.730469 1513.339844 1072.929688 1503.539062 C 1063.128906 1493.738281 1049.628906 1487.660156 1034.78125 1487.660156 "/>
<path fill-rule="evenodd" fill="rgb(3.921509%, 39.988708%, 76.171875%)" fill-opacity="1" d="M 412.796875 1784.574219 L 528.820312 1784.574219 L 528.820312 2167.449219 L 412.796875 2167.449219 Z M 471.746094 1590.277344 C 509.15625 1590.277344 539.480469 1620.601562 539.480469 1658.007812 C 539.480469 1695.414062 509.15625 1725.738281 471.746094 1725.738281 C 434.339844 1725.738281 404.015625 1695.414062 404.015625 1658.007812 C 404.015625 1620.601562 434.339844 1590.277344 471.746094 1590.277344 Z M 707.1875 1836.644531 C 782.191406 1737.835938 981.941406 1747.796875 981.941406 1934.996094 C 981.941406 2165.453125 981.941406 2167.714844 981.941406 2167.714844 L 864.828125 2167.714844 L 865.136719 1962.691406 C 865.136719 1839.03125 717.984375 1863.992188 712.878906 1957.671875 L 712.878906 2167.449219 L 596.855469 2167.449219 L 596.855469 1784.574219 L 707.1875 1784.574219 L 707.1875 1836.644531 "/>
<path fill-rule="nonzero" fill="rgb(3.921509%, 39.988708%, 76.171875%)" fill-opacity="1" d="M 1878.191406 1467.621094 C 1991.789062 1467.621094 2094.628906 1513.660156 2169.078125 1588.105469 C 2243.519531 1662.554688 2289.570312 1765.398438 2289.570312 1878.996094 C 2289.570312 1992.59375 2243.519531 2095.4375 2169.078125 2169.882812 C 2094.628906 2244.328125 1991.789062 2290.375 1878.191406 2290.375 C 1764.589844 2290.375 1661.738281 2244.328125 1587.300781 2169.882812 C 1512.851562 2095.4375 1466.808594 1992.59375 1466.808594 1878.996094 C 1466.808594 1765.398438 1512.851562 1662.554688 1587.300781 1588.105469 C 1661.738281 1513.660156 1764.589844 1467.621094 1878.191406 1467.621094 Z M 2154.929688 1602.246094 C 2084.109375 1531.421875 1986.261719 1487.621094 1878.191406 1487.621094 C 1770.109375 1487.621094 1672.261719 1531.421875 1601.441406 1602.246094 C 1530.621094 1673.074219 1486.808594 1770.917969 1486.808594 1878.996094 C 1486.808594 1987.074219 1530.609375 2084.917969 1601.441406 2155.742188 C 1672.261719 2226.566406 1770.109375 2270.375 1878.191406 2270.375 C 1986.261719 2270.375 2084.109375 2226.566406 2154.941406 2155.742188 C 2225.761719 2084.917969 2269.570312 1987.074219 2269.570312 1878.996094 C 2269.570312 1770.917969 2225.761719 1673.074219 2154.929688 1602.246094 "/>
<path fill-rule="evenodd" fill="rgb(3.921509%, 39.988708%, 76.171875%)" fill-opacity="1" d="M 1650.980469 1802.425781 L 1745.070312 1802.425781 L 1745.070312 2112.914062 L 1650.980469 2112.914062 Z M 1698.78125 1644.863281 C 1729.121094 1644.863281 1753.710938 1669.453125 1753.710938 1699.789062 C 1753.710938 1730.125 1729.121094 1754.714844 1698.78125 1754.714844 C 1668.449219 1754.714844 1643.859375 1730.125 1643.859375 1699.789062 C 1643.859375 1669.453125 1668.449219 1644.863281 1698.78125 1644.863281 Z M 1889.710938 1844.652344 C 1950.53125 1764.523438 2112.519531 1772.601562 2112.519531 1924.40625 C 2112.519531 2111.296875 2112.519531 2113.128906 2112.519531 2113.128906 L 2017.550781 2113.128906 L 2017.800781 1946.867188 C 2017.800781 1846.585938 1898.46875 1866.828125 1894.320312 1942.796875 L 1894.320312 2112.914062 L 1800.238281 2112.914062 L 1800.238281 1802.425781 L 1889.710938 1802.425781 L 1889.710938 1844.652344 "/>
<path fill-rule="nonzero" fill="rgb(0%, 0%, 0%)" fill-opacity="1" d="M 2722.820312 1467.578125 L 3397.429688 1467.578125 C 3417.820312 1467.578125 3436.351562 1475.910156 3449.78125 1489.339844 C 3463.210938 1502.769531 3471.550781 1521.300781 3471.550781 1541.691406 L 3471.550781 2216.300781 C 3471.550781 2236.691406 3463.210938 2255.222656 3449.78125 2268.648438 C 3436.351562 2282.078125 3417.820312 2290.410156 3397.429688 2290.410156 L 2722.820312 2290.410156 C 2702.429688 2290.410156 2683.898438 2282.078125 2670.480469 2268.648438 C 2657.050781 2255.222656 2648.710938 2236.691406 2648.710938 2216.300781 L 2648.710938 1541.691406 C 2648.710938 1521.300781 2657.050781 1502.769531 2670.480469 1489.339844 C 2683.898438 1475.910156 2702.429688 1467.578125 2722.820312 1467.578125 Z M 3397.429688 1487.660156 L 2722.820312 1487.660156 C 2707.980469 1487.660156 2694.46875 1493.738281 2684.671875 1503.539062 C 2674.871094 1513.339844 2668.789062 1526.839844 2668.789062 1541.691406 L 2668.789062 2216.300781 C 2668.789062 2231.148438 2674.871094 2244.65625 2684.671875 2254.453125 C 2694.46875 2264.253906 2707.980469 2270.335938 2722.820312 2270.335938 L 3397.429688 2270.335938 C 3412.28125 2270.335938 3425.789062 2264.253906 3435.589844 2254.453125 C 3445.378906 2244.65625 3451.46875 2231.148438 3451.46875 2216.300781 L 3451.46875 1541.691406 C 3451.46875 1526.839844 3445.378906 1513.339844 3435.589844 1503.539062 C 3425.789062 1493.738281 3412.28125 1487.660156 3397.429688 1487.660156 "/>
<path fill-rule="evenodd" fill="rgb(0%, 0%, 0%)" fill-opacity="1" d="M 2775.449219 1784.574219 L 2891.480469 1784.574219 L 2891.480469 2167.449219 L 2775.449219 2167.449219 Z M 2834.398438 1590.277344 C 2871.808594 1590.277344 2902.140625 1620.601562 2902.140625 1658.007812 C 2902.140625 1695.414062 2871.808594 1725.738281 2834.398438 1725.738281 C 2797 1725.738281 2766.671875 1695.414062 2766.671875 1658.007812 C 2766.671875 1620.601562 2797 1590.277344 2834.398438 1590.277344 Z M 3069.839844 1836.644531 C 3144.851562 1737.835938 3344.601562 1747.796875 3344.601562 1934.996094 C 3344.601562 2165.453125 3344.601562 2167.714844 3344.601562 2167.714844 L 3227.488281 2167.714844 L 3227.789062 1962.691406 C 3227.789062 1839.03125 3080.640625 1863.992188 3075.53125 1957.671875 L 3075.53125 2167.449219 L 2959.511719 2167.449219 L 2959.511719 1784.574219 L 3069.839844 1784.574219 L 3069.839844 1836.644531 "/>
<path fill-rule="nonzero" fill="rgb(0%, 0%, 0%)" fill-opacity="1" d="M 4242.140625 1467.621094 C 4355.738281 1467.621094 4458.578125 1513.660156 4533.03125 1588.105469 C 4607.46875 1662.554688 4653.519531 1765.398438 4653.519531 1878.996094 C 4653.519531 1992.59375 4607.46875 2095.4375 4533.03125 2169.882812 C 4458.578125 2244.328125 4355.738281 2290.375 4242.140625 2290.375 C 4128.539062 2290.375 4025.699219 2244.328125 3951.25 2169.882812 C 3876.808594 2095.4375 3830.761719 1992.59375 3830.761719 1878.996094 C 3830.761719 1765.398438 3876.808594 1662.554688 3951.25 1588.105469 C 4025.699219 1513.660156 4128.539062 1467.621094 4242.140625 1467.621094 Z M 4518.890625 1602.246094 C 4448.058594 1531.421875 4350.21875 1487.621094 4242.140625 1487.621094 C 4134.058594 1487.621094 4036.21875 1531.421875 3965.390625 1602.246094 C 3894.570312 1673.074219 3850.761719 1770.917969 3850.761719 1878.996094 C 3850.761719 1987.074219 3894.570312 2084.917969 3965.390625 2155.742188 C 4036.21875 2226.566406 4134.058594 2270.375 4242.140625 2270.375 C 4350.21875 2270.375 4448.058594 2226.566406 4518.890625 2155.742188 C 4589.710938 2084.917969 4633.519531 1987.074219 4633.519531 1878.996094 C 4633.519531 1770.917969 4589.710938 1673.074219 4518.890625 1602.246094 "/>
<path fill-rule="evenodd" fill="rgb(0%, 0%, 0%)" fill-opacity="1" d="M 4014.929688 1802.425781 L 4109.019531 1802.425781 L 4109.019531 2112.914062 L 4014.929688 2112.914062 Z M 4062.738281 1644.863281 C 4093.070312 1644.863281 4117.660156 1669.453125 4117.660156 1699.789062 C 4117.660156 1730.125 4093.070312 1754.714844 4062.738281 1754.714844 C 4032.398438 1754.714844 4007.808594 1730.125 4007.808594 1699.789062 C 4007.808594 1669.453125 4032.398438 1644.863281 4062.738281 1644.863281 Z M 4253.660156 1844.652344 C 4314.488281 1764.523438 4476.46875 1772.601562 4476.46875 1924.40625 C 4476.46875 2111.296875 4476.46875 2113.128906 4476.46875 2113.128906 L 4381.5 2113.128906 L 4381.75 1946.867188 C 4381.75 1846.585938 4262.421875 1866.828125 4258.28125 1942.796875 L 4258.28125 2112.914062 L 4164.191406 2112.914062 L 4164.191406 1802.425781 L 4253.660156 1802.425781 L 4253.660156 1844.652344 "/>
<path fill-rule="evenodd" fill="rgb(0%, 0%, 0%)" fill-opacity="1" d="M 5022.769531 1784.574219 L 5138.800781 1784.574219 L 5138.800781 2167.449219 L 5022.769531 2167.449219 Z M 5081.71875 1590.277344 C 5119.128906 1590.277344 5149.460938 1620.601562 5149.460938 1658.007812 C 5149.460938 1695.414062 5119.128906 1725.738281 5081.71875 1725.738281 C 5044.320312 1725.738281 5013.988281 1695.414062 5013.988281 1658.007812 C 5013.988281 1620.601562 5044.320312 1590.277344 5081.71875 1590.277344 Z M 5317.160156 1836.644531 C 5392.171875 1737.835938 5591.921875 1747.796875 5591.921875 1934.996094 C 5591.921875 2165.453125 5591.921875 2167.714844 5591.921875 2167.714844 L 5474.800781 2167.714844 L 5475.109375 1962.691406 C 5475.109375 1839.03125 5327.960938 1863.992188 5322.851562 1957.671875 L 5322.851562 2167.449219 L 5206.828125 2167.449219 L 5206.828125 1784.574219 L 5317.160156 1784.574219 L 5317.160156 1836.644531 "/>
</svg>
